<?xml version="1.0" standalone="no"?>
<!DOCTYPE svg PUBLIC "-//W3C//DTD SVG 20010904//EN"
 "http://www.w3.org/TR/2001/REC-SVG-20010904/DTD/svg10.dtd">
<svg version="1.0" xmlns="http://www.w3.org/2000/svg"
 width="500.000000pt" height="500.000000pt" viewBox="0 0 500.000000 500.000000"
 preserveAspectRatio="xMidYMid meet">
<metadata>
Created by potrace 1.14, written by Peter Selinger 2001-2017
</metadata>
<g transform="translate(0.000000,500.000000) scale(0.100000,-0.100000)"
fill="#000000" stroke="none">
<path d="M570 2500 l0 -770 384 0 383 0 7 68 c41 401 371 702 771 702 129 0
228 -24 355 -87 81 -39 109 -60 185 -137 50 -50 105 -117 124 -149 48 -83 89
-204 103 -308 l12 -89 383 0 383 0 0 48 c0 26 7 76 15 112 78 337 345 572 685
606 l70 7 0 385 0 385 -102 -7 c-367 -24 -720 -184 -1000 -454 l-57 -55 -97
92 c-209 198 -465 331 -754 392 -153 33 -438 33 -595 2 -137 -28 -262 -70
-382 -128 -51 -25 -95 -45 -98 -45 -3 0 -5 45 -5 100 l0 100 -385 0 -385 0 0
-770z"/>
</g>
</svg>
